<svg id="Layer_1" data-name="Layer 1" xmlns="http://www.w3.org/2000/svg" viewBox="0 0 25 62.51"><defs><style>.cls-1,.cls-2{fill:none;}.cls-2{stroke:#fff;stroke-width:5px;}</style></defs><title>9</title><rect class="cls-1" x="2.5" y="2.51" width="20" height="20"/><rect class="cls-1" x="2.5" y="42.51" width="20" height="20"/><path class="cls-2" d="M9.27,0C14.66,0,19,5.14,19,11.45S14.66,22.87,9.27,22.87c-5.38-.31-9.53-5.68-9.26-12S4.87-.29,10.25,0C15.63,0,20,5.14,20,11.45s-4.37,11.42-9.75,11.42c5.38,0,9.75-5.11,9.75-11.42S15.63,0,10.25,0H20V34.3C20,37.45,15.63,40,10.25,40S.5,37.45.5,34.3" transform="translate(2.5 2.51)"/></svg>