<svg id="Layer_1" data-name="Layer 1" xmlns="http://www.w3.org/2000/svg" viewBox="0 0 25.02 62.5"><defs><style>.cls-1,.cls-2{fill:none;}.cls-2{stroke:#fff;stroke-width:5px;}</style></defs><title>Gg</title><rect class="cls-1" x="2.51" width="20" height="20"/><rect class="cls-1" x="2.51" y="40" width="20" height="20"/><rect class="cls-1" x="2.51" y="0.5" width="20" height="20"/><rect class="cls-1" x="2.85" width="19.32" height="18.82"/><rect class="cls-1" x="2.52" width="20" height="20"/><path class="cls-2" d="M9.28,20C14.67,20,19,25.13,19,31.45S14.65,42.86,9.26,42.86-.27,37.19,0,30.87,4.87,19.73,10.26,20C15.64,20,20,25.13,20,31.45s-4.37,11.41-9.75,11.41c5.38,0,9.75-5.09,9.75-11.41S15.64,20,10.26,20H20V54.3c0,3.14-4.37,5.7-9.75,5.7S.51,57.44.51,54.3" transform="translate(2.51 0)"/></svg>